<?xml version="1.0" encoding="UTF-8"?>
<svg xmlns="http://www.w3.org/2000/svg" xmlns:xlink="http://www.w3.org/1999/xlink" width="1024" height="1024" viewBox="0 0 1024 1024" aria-hidden="true" focusable="false" data-label="Trophée" shape-rendering="geometricPrecision">
  <defs>
    <linearGradient id="orangeGradient" gradientUnits="userSpaceOnUse" x1="150" y1="130" x2="880" y2="900">
      <stop offset="0%" stop-color="#C6B0FF"/>
      <stop offset="52%" stop-color="#A986FF"/>
      <stop offset="100%" stop-color="#765EB2"/>
    </linearGradient>
  </defs>
  <g id="linework" fill="none" stroke-linecap="round" stroke-linejoin="round">
    <path d="M350 260 H674 V390 C674 545 608 650 512 690 C416 650 350 545 350 390 Z"/>
    <path d="M350 315 H270 C220 315 205 350 212 405 C222 500 278 565 383 575"/>
    <path d="M674 315 H754 C804 315 819 350 812 405 C802 500 746 565 641 575"/>
    <path d="M300 365 H350"/>
    <path d="M724 365 H674"/>
    <path d="M300 365 C302 452 340 515 402 535"/>
    <path d="M724 365 C722 452 684 515 622 535"/>
    <path d="M468 678 C468 730 455 765 430 790 H594 C569 765 556 730 556 678"/>
    <rect x="398" y="790" width="228" height="62" rx="18" ry="18"/>
    <rect x="360" y="852" width="304" height="74" rx="20" ry="20"/>
    <path d="M330 926 H694"/>
  </g>
  <use xlink:href="#linework" fill="none" stroke="#765EB2" stroke-width="36.25" stroke-linecap="round" stroke-linejoin="round"/>
  <use xlink:href="#linework" fill="none" stroke="url(#orangeGradient)" stroke-width="30" stroke-linecap="round" stroke-linejoin="round"/>
</svg>
