<?xml version="1.0" encoding="UTF-8"?>
<svg xmlns="http://www.w3.org/2000/svg" width="1024" height="1024" viewBox="0 0 1024 1024" aria-hidden="true" focusable="false" shape-rendering="geometricPrecision">
  <defs>
    <linearGradient id="etape11Gradient" x1="0%" y1="0%" x2="100%" y2="100%">
      <stop offset="0%" stop-color="#FFE085"/>
      <stop offset="52%" stop-color="#FFC83D"/>
      <stop offset="100%" stop-color="#B88300"/>
    </linearGradient>
  </defs>
  <path d="M 709 711 L 705 707 L 703 707 L 702 706 L 695 706 L 691 708 L 673 722 L 670 723 L 665 727 L 655 732 L 653 734 L 644 738 L 642 740 L 640 740 L 638 742 L 634 744 L 632 744 L 614 753 L 612 753 L 604 757 L 596 759 L 593 761 L 590 761 L 584 764 L 580 769 L 580 777 L 581 779 L 584 782 L 588 784 L 594 784 L 595 783 L 603 781 L 606 779 L 614 777 L 617 775 L 619 775 L 627 771 L 629 771 L 660 756 L 662 754 L 674 748 L 676 746 L 692 736 L 703 727 L 704 727 L 710 720 L 710 713 Z M 316 711 L 315 713 L 315 721 L 321 728 L 325 730 L 336 739 L 337 739 L 348 747 L 361 754 L 363 756 L 374 761 L 378 764 L 380 764 L 400 774 L 405 775 L 408 777 L 413 778 L 416 780 L 418 780 L 419 781 L 421 781 L 428 784 L 436 784 L 442 779 L 444 773 L 443 772 L 443 769 L 440 765 L 434 762 L 432 762 L 431 761 L 420 758 L 417 756 L 412 755 L 409 753 L 407 753 L 400 749 L 398 749 L 378 739 L 376 737 L 371 735 L 369 733 L 366 732 L 364 730 L 361 729 L 359 727 L 352 723 L 333 708 L 329 706 L 322 706 Z M 772 437 L 768 439 L 766 441 L 764 445 L 764 449 L 765 450 L 765 453 L 768 460 L 769 468 L 770 469 L 770 473 L 771 474 L 772 486 L 773 487 L 773 495 L 774 496 L 774 532 L 773 533 L 773 541 L 772 542 L 772 548 L 771 549 L 771 554 L 770 555 L 770 559 L 769 560 L 769 565 L 768 566 L 768 568 L 771 574 L 772 574 L 774 576 L 776 577 L 783 577 L 787 575 L 790 570 L 791 562 L 792 561 L 792 557 L 793 556 L 794 543 L 795 542 L 795 530 L 796 529 L 796 499 L 795 498 L 795 488 L 794 487 L 794 481 L 793 480 L 793 475 L 792 474 L 792 468 L 791 467 L 790 459 L 789 458 L 789 455 L 788 454 L 788 451 L 787 450 L 786 445 L 784 441 L 781 438 L 779 437 Z M 245 437 L 241 439 L 239 441 L 237 448 L 236 449 L 234 460 L 233 461 L 233 466 L 232 467 L 231 478 L 230 479 L 230 487 L 229 488 L 229 499 L 228 500 L 228 524 L 229 525 L 229 537 L 230 538 L 231 552 L 232 553 L 233 563 L 234 564 L 235 570 L 237 574 L 242 577 L 250 577 L 255 574 L 257 570 L 257 563 L 256 562 L 256 558 L 255 557 L 255 553 L 254 552 L 254 548 L 253 547 L 253 542 L 252 541 L 252 535 L 251 534 L 251 524 L 250 523 L 250 500 L 251 499 L 251 490 L 252 489 L 252 481 L 253 480 L 253 475 L 254 474 L 255 465 L 256 464 L 256 461 L 257 460 L 257 457 L 258 456 L 258 453 L 259 452 L 259 444 L 256 439 L 252 437 Z M 585 258 L 585 260 L 584 261 L 584 268 L 588 273 L 594 276 L 596 276 L 602 279 L 604 279 L 609 282 L 611 282 L 618 286 L 620 286 L 622 288 L 624 288 L 632 292 L 634 294 L 643 298 L 648 302 L 651 303 L 653 305 L 657 307 L 660 310 L 661 310 L 664 313 L 669 316 L 673 320 L 677 322 L 683 322 L 687 320 L 690 317 L 691 315 L 691 307 L 690 305 L 686 301 L 685 301 L 681 297 L 673 292 L 670 289 L 667 288 L 665 286 L 664 286 L 659 282 L 654 280 L 652 278 L 645 275 L 643 273 L 627 265 L 625 265 L 622 263 L 620 263 L 615 260 L 613 260 L 610 258 L 608 258 L 603 255 L 601 255 L 597 253 L 591 253 Z M 439 258 L 433 253 L 426 253 L 425 254 L 417 256 L 414 258 L 412 258 L 409 260 L 407 260 L 402 263 L 400 263 L 374 276 L 372 278 L 367 280 L 365 282 L 362 283 L 360 285 L 353 289 L 350 292 L 349 292 L 342 298 L 341 298 L 337 302 L 336 302 L 336 303 L 333 306 L 333 309 L 332 310 L 334 317 L 337 320 L 341 322 L 345 322 L 346 321 L 348 321 L 366 307 L 367 307 L 381 297 L 409 283 L 411 283 L 421 278 L 423 278 L 424 277 L 426 277 L 427 276 L 429 276 L 436 273 L 440 268 L 440 260 Z M 232 331 L 225 343 L 225 345 L 222 351 L 222 354 L 221 355 L 221 360 L 220 361 L 220 376 L 221 377 L 221 382 L 222 383 L 222 386 L 223 387 L 223 389 L 224 390 L 224 392 L 227 399 L 229 401 L 230 404 L 233 407 L 233 408 L 237 412 L 237 413 L 239 414 L 246 421 L 249 422 L 251 424 L 259 428 L 261 428 L 264 430 L 267 430 L 268 431 L 272 431 L 273 432 L 290 432 L 291 433 L 291 436 L 288 441 L 288 443 L 286 446 L 286 448 L 283 454 L 283 457 L 281 461 L 281 464 L 280 465 L 280 468 L 279 469 L 278 479 L 277 480 L 276 495 L 275 496 L 275 524 L 276 525 L 277 540 L 278 541 L 278 545 L 279 546 L 279 550 L 280 551 L 281 558 L 282 559 L 285 570 L 287 573 L 287 576 L 286 577 L 278 578 L 277 579 L 274 579 L 273 580 L 270 580 L 269 581 L 264 582 L 252 589 L 237 605 L 231 617 L 231 619 L 229 623 L 229 626 L 228 627 L 228 633 L 227 634 L 227 645 L 228 646 L 228 653 L 229 654 L 229 657 L 230 658 L 230 661 L 232 664 L 232 666 L 236 674 L 241 680 L 241 681 L 250 690 L 251 690 L 257 695 L 269 701 L 271 701 L 275 703 L 279 703 L 280 704 L 301 704 L 302 703 L 306 703 L 307 702 L 313 701 L 330 692 L 343 679 L 352 663 L 353 657 L 354 656 L 354 652 L 355 651 L 355 631 L 354 630 L 354 627 L 353 626 L 353 623 L 352 622 L 351 617 L 347 609 L 345 607 L 343 603 L 339 599 L 339 598 L 328 588 L 322 585 L 320 583 L 316 582 L 313 579 L 304 557 L 304 554 L 302 550 L 301 542 L 300 541 L 300 536 L 299 535 L 299 529 L 298 528 L 298 518 L 297 517 L 297 505 L 298 504 L 298 492 L 299 491 L 300 479 L 301 478 L 302 470 L 304 466 L 304 463 L 305 462 L 308 451 L 319 429 L 321 427 L 324 421 L 327 418 L 329 414 L 332 411 L 335 406 L 340 401 L 340 400 L 345 395 L 345 394 L 359 380 L 360 380 L 367 374 L 375 369 L 376 369 L 382 375 L 384 376 L 392 376 L 396 374 L 400 369 L 400 367 L 401 366 L 401 361 L 399 357 L 401 353 L 419 334 L 420 334 L 428 327 L 429 327 L 434 323 L 437 322 L 439 320 L 460 310 L 462 310 L 463 309 L 465 309 L 472 306 L 479 305 L 480 304 L 484 304 L 485 303 L 489 303 L 490 302 L 497 302 L 498 301 L 524 301 L 525 302 L 533 302 L 534 303 L 544 304 L 545 305 L 552 306 L 553 307 L 558 308 L 561 310 L 569 312 L 585 320 L 587 322 L 590 323 L 592 325 L 602 331 L 607 336 L 608 336 L 625 354 L 625 357 L 624 358 L 624 368 L 630 375 L 632 376 L 640 376 L 645 373 L 647 369 L 649 369 L 662 379 L 663 379 L 670 386 L 671 386 L 688 405 L 688 406 L 695 414 L 695 415 L 698 418 L 698 419 L 704 427 L 710 439 L 713 443 L 713 445 L 716 450 L 716 452 L 718 455 L 718 457 L 721 464 L 721 467 L 722 468 L 722 470 L 723 471 L 723 475 L 724 476 L 724 480 L 725 481 L 725 486 L 726 487 L 726 495 L 727 496 L 727 527 L 726 528 L 725 541 L 724 542 L 722 553 L 721 554 L 718 565 L 715 570 L 715 572 L 712 577 L 712 579 L 710 581 L 701 585 L 695 590 L 694 590 L 683 601 L 683 602 L 679 607 L 674 617 L 674 619 L 671 626 L 671 630 L 670 631 L 670 640 L 669 641 L 670 642 L 670 652 L 671 653 L 671 658 L 662 665 L 658 667 L 655 670 L 644 677 L 642 677 L 635 671 L 626 671 L 625 672 L 623 672 L 617 679 L 617 686 L 619 690 L 619 692 L 618 693 L 617 693 L 606 703 L 605 703 L 599 708 L 593 711 L 591 713 L 575 721 L 573 721 L 570 723 L 568 723 L 562 726 L 559 726 L 558 727 L 552 728 L 548 730 L 544 730 L 543 731 L 539 731 L 538 732 L 533 732 L 532 733 L 504 734 L 503 733 L 491 733 L 490 732 L 479 731 L 478 730 L 467 728 L 466 727 L 455 724 L 431 712 L 429 710 L 422 706 L 419 703 L 418 703 L 413 698 L 412 698 L 407 693 L 406 693 L 405 691 L 407 688 L 408 681 L 407 680 L 406 676 L 403 673 L 399 671 L 391 671 L 390 672 L 388 672 L 383 677 L 380 677 L 378 675 L 371 671 L 368 668 L 366 668 L 365 667 L 360 667 L 359 668 L 357 668 L 353 672 L 353 674 L 352 675 L 352 681 L 354 685 L 357 688 L 358 688 L 369 696 L 386 704 L 401 718 L 402 718 L 406 722 L 407 722 L 415 728 L 418 729 L 423 733 L 425 733 L 427 735 L 437 740 L 439 740 L 444 743 L 449 744 L 455 747 L 458 747 L 465 750 L 473 751 L 474 752 L 478 752 L 479 753 L 492 754 L 493 755 L 518 756 L 519 755 L 539 754 L 540 753 L 544 753 L 545 752 L 554 751 L 555 750 L 562 749 L 566 747 L 569 747 L 572 745 L 574 745 L 575 744 L 580 743 L 585 740 L 587 740 L 591 738 L 593 736 L 595 736 L 599 733 L 609 728 L 618 721 L 622 719 L 637 705 L 661 693 L 667 688 L 671 686 L 678 679 L 681 678 L 684 681 L 684 682 L 695 692 L 707 699 L 709 699 L 712 701 L 718 702 L 719 703 L 736 705 L 737 704 L 746 704 L 747 703 L 750 703 L 751 702 L 759 700 L 767 696 L 769 694 L 773 692 L 778 687 L 779 687 L 786 679 L 786 678 L 790 673 L 794 665 L 794 663 L 796 659 L 796 656 L 797 655 L 797 651 L 798 650 L 798 631 L 797 630 L 797 626 L 796 625 L 795 619 L 789 607 L 784 601 L 784 600 L 776 592 L 775 592 L 771 588 L 768 587 L 766 585 L 760 582 L 758 582 L 751 579 L 743 578 L 742 577 L 738 577 L 737 576 L 739 572 L 739 570 L 741 567 L 741 564 L 744 557 L 745 549 L 746 548 L 746 545 L 747 544 L 748 530 L 749 529 L 749 516 L 750 515 L 750 509 L 749 508 L 749 492 L 748 491 L 748 484 L 747 483 L 746 472 L 745 471 L 743 460 L 742 459 L 739 448 L 736 443 L 736 441 L 732 433 L 733 432 L 750 432 L 751 431 L 759 430 L 760 429 L 765 428 L 779 420 L 786 414 L 786 413 L 792 407 L 792 406 L 796 401 L 801 391 L 802 385 L 803 384 L 803 381 L 804 380 L 804 359 L 803 358 L 803 354 L 802 353 L 800 345 L 792 331 L 781 320 L 780 320 L 771 313 L 769 313 L 764 310 L 762 310 L 758 308 L 754 308 L 753 307 L 749 307 L 748 306 L 734 306 L 733 307 L 728 307 L 727 308 L 724 308 L 723 309 L 718 310 L 708 315 L 702 320 L 701 320 L 691 330 L 682 346 L 682 348 L 680 352 L 680 355 L 679 356 L 679 360 L 678 361 L 676 361 L 673 358 L 672 358 L 661 350 L 658 349 L 656 347 L 644 343 L 642 341 L 640 337 L 624 321 L 623 321 L 613 312 L 612 312 L 604 306 L 578 292 L 576 292 L 573 290 L 568 289 L 565 287 L 559 286 L 556 284 L 556 283 L 559 280 L 560 280 L 560 279 L 566 272 L 570 264 L 570 262 L 572 259 L 572 257 L 573 256 L 573 252 L 574 251 L 574 245 L 575 244 L 575 232 L 574 231 L 574 225 L 573 224 L 573 221 L 572 220 L 571 215 L 567 207 L 565 205 L 563 201 L 552 190 L 539 182 L 537 182 L 534 180 L 532 180 L 528 178 L 524 178 L 523 177 L 502 177 L 501 178 L 497 178 L 496 179 L 493 179 L 487 182 L 485 182 L 472 190 L 462 200 L 462 201 L 458 206 L 454 214 L 454 216 L 452 219 L 452 222 L 451 223 L 451 226 L 450 227 L 450 248 L 451 249 L 451 253 L 452 254 L 452 257 L 454 260 L 454 262 L 459 272 L 468 282 L 468 284 L 465 286 L 459 287 L 456 289 L 454 289 L 453 290 L 448 291 L 443 294 L 441 294 L 433 298 L 426 303 L 421 305 L 418 308 L 417 308 L 407 316 L 406 316 L 394 328 L 393 328 L 392 330 L 380 343 L 378 343 L 364 350 L 347 362 L 345 361 L 344 353 L 341 347 L 341 345 L 333 331 L 317 316 L 303 309 L 300 309 L 299 308 L 296 308 L 295 307 L 290 307 L 289 306 L 275 306 L 274 307 L 265 308 L 259 311 L 257 311 L 245 318 L 241 322 L 240 322 L 240 323 L 238 324 Z M 728 599 L 739 599 L 740 600 L 744 600 L 750 603 L 752 603 L 754 605 L 757 606 L 760 609 L 761 609 L 769 618 L 774 628 L 775 636 L 776 637 L 776 645 L 775 646 L 775 650 L 774 651 L 773 656 L 769 664 L 765 668 L 765 669 L 755 677 L 747 681 L 739 682 L 738 683 L 731 683 L 730 682 L 725 682 L 724 681 L 721 681 L 712 677 L 709 674 L 708 674 L 698 663 L 695 657 L 695 655 L 693 651 L 693 646 L 692 645 L 692 637 L 693 636 L 693 631 L 699 617 L 706 609 L 707 609 L 713 604 L 717 602 L 719 602 L 723 600 L 727 600 Z M 286 599 L 296 599 L 297 600 L 301 600 L 302 601 L 309 603 L 311 605 L 318 609 L 326 618 L 327 621 L 329 623 L 329 625 L 331 628 L 331 631 L 332 632 L 332 636 L 333 637 L 333 645 L 332 646 L 332 651 L 331 652 L 330 657 L 324 667 L 319 672 L 318 672 L 312 677 L 300 682 L 294 682 L 293 683 L 290 683 L 289 682 L 282 682 L 281 681 L 276 680 L 267 675 L 258 666 L 258 665 L 256 663 L 252 655 L 251 649 L 250 648 L 250 633 L 251 632 L 252 626 L 256 618 L 259 615 L 259 614 L 269 605 L 275 602 L 277 602 L 280 600 L 285 600 Z M 735 328 L 747 328 L 748 329 L 751 329 L 752 330 L 757 331 L 767 337 L 776 347 L 780 355 L 781 361 L 782 362 L 782 369 L 783 370 L 782 372 L 782 377 L 781 378 L 780 384 L 776 392 L 773 395 L 773 396 L 764 404 L 754 409 L 752 409 L 751 410 L 747 410 L 746 411 L 734 411 L 733 410 L 729 410 L 718 405 L 715 402 L 714 402 L 707 394 L 703 386 L 703 384 L 701 380 L 701 374 L 700 373 L 700 366 L 701 365 L 702 357 L 704 354 L 705 350 L 707 348 L 709 344 L 717 336 L 718 336 L 723 332 L 730 330 L 731 329 L 734 329 Z M 271 329 L 275 329 L 276 328 L 290 328 L 291 329 L 297 330 L 303 333 L 309 338 L 310 338 L 316 345 L 321 354 L 321 356 L 323 360 L 323 364 L 324 365 L 324 375 L 323 376 L 323 380 L 322 381 L 321 386 L 315 396 L 308 403 L 299 408 L 293 409 L 292 410 L 287 410 L 286 411 L 283 411 L 282 410 L 275 410 L 274 409 L 268 408 L 258 402 L 250 394 L 245 385 L 245 383 L 243 379 L 243 374 L 242 373 L 242 364 L 243 363 L 244 355 L 250 344 L 259 335 Z M 502 199 L 507 199 L 508 198 L 521 199 L 533 204 L 535 206 L 536 206 L 545 215 L 550 224 L 550 226 L 552 230 L 552 247 L 551 248 L 551 251 L 548 258 L 546 260 L 544 264 L 539 269 L 538 269 L 535 272 L 524 277 L 521 277 L 520 278 L 505 278 L 504 277 L 498 276 L 490 272 L 487 269 L 486 269 L 481 264 L 474 252 L 474 249 L 473 248 L 473 245 L 472 244 L 472 233 L 473 232 L 473 228 L 474 227 L 474 225 L 478 217 L 488 206 Z" fill="url(#etape11Gradient)" fill-rule="evenodd" clip-rule="evenodd" stroke="#B88300" stroke-width="5.62" stroke-linejoin="round"/>
</svg>
